Coordinates
version=1
nRows=16
nColumns=36
inDegrees=yes

Units are S.I. units (second, meters, Newtons, ...)
If the header above contains a line with 'inDegrees', this indicates whether rotational values are in degrees (yes) or radians (no).

endheader
time	pelvis_tilt	pelvis_list	pelvis_rotation	pelvis_tx	pelvis_ty	pelvis_tz	hip_flexion_r	hip_adduction_r	hip_rotation_r	knee_angle_r	knee_angle_r_beta	ankle_angle_r	subtalar_angle_r	mtp_angle_r	hip_flexion_l	hip_adduction_l	hip_rotation_l	knee_angle_l	knee_angle_l_beta	ankle_angle_l	subtalar_angle_l	mtp_angle_l	lumbar_extension	lumbar_bending	lumbar_rotation	arm_flex_r	arm_add_r	arm_rot_r	elbow_flex_r	pro_sup_r	arm_flex_l	arm_add_l	arm_rot_l	elbow_flex_l	pro_sup_l
      0.00000000	      0.01616198	      3.25127894	      3.18779911	     -0.17887594	      0.99878839	     -0.20670518	     25.95270505	     -2.63699413	    -11.01219092	      0.92717034	      0.01618218	     -1.87754518	     11.33559243	     -4.96680022	    -17.05152345	      5.39253217	     -1.94816053	     10.35658855	      0.18075657	     16.53396195	      5.58922815	     -4.96680022	    -12.52016165	     -4.51799019	    -14.16699114	    -19.78356033	     -3.32280042	    -18.93874566	     33.07782709	    106.38592918	      9.40073872	    -21.82150957	    -20.46352597	     59.47226625	     95.57709380
      0.01000000	      0.31165839	      2.70756105	      3.70360744	     -0.16236820	      0.99956480	     -0.20635378	     24.69738598	     -2.01351400	    -11.13998009	      0.53180540	      0.00928176	     -3.40948967	     10.63047367	     -4.99855402	    -17.40191851	      4.51169632	     -1.89853123	     11.89811912	      0.20766135	     15.50179042	      4.80806119	     -4.99855402	    -12.57419546	     -3.88732170	    -14.33089536	    -20.15308091	     -3.32800043	    -18.76563513	     32.53948531	    106.69432088	      9.21216716	    -21.70885103	    -20.33137083	     59.89794123	     95.87169465
      0.02000000	      0.24349689	      2.35305934	      4.12548854	     -0.14620982	      0.99996592	     -0.20585643	     24.02003319	     -1.55064127	    -10.54271111	      0.48681563	      0.00849654	     -5.19580049	      8.61757055	     -5.18498086	    -17.28339947	      3.92965480	     -1.43086935	     13.53450498	      0.23622167	     14.16913222	      3.42935776	     -5.18498086	    -12.27258207	     -3.55221784	    -14.76377877	    -20.25568593	     -3.49313778	    -17.94256351	     31.63495238	    108.37401953	      8.54678059	    -21.58739654	    -20.99306567	     60.71093911	     97.31814783
      0.03000000	      0.40112113	      1.89224237	      4.60299885	     -0.12973890	      1.00091843	     -0.20540373	     23.08817518	     -1.05169796	    -10.79838187	      0.50247539	      0.00876985	     -6.45662420	      8.06359047	     -5.21260297	    -17.13111978	      3.12661751	     -1.48938479	     15.63188775	      0.27282791	     12.92165849	      2.62890470	     -5.21260297	    -12.18589585	     -3.04984725	    -14.82709782	    -20.64746076	     -3.42318009	    -17.92619888	     31.32823306	    108.46546376	      8.28144251	    -21.35025616	    -20.86405690	     61.18970801	     97.51087510
      0.04000000	      0.38513311	      1.44096853	      4.94129333	     -0.11330807	      1.00201492	     -0.20465776	     22.33961534	     -0.51331274	    -10.57596644	      0.49454387	      0.00863142	     -8.20795829	      6.74552632	     -5.27293438	    -16.62139251	      2.41817580	     -1.40006961	     17.94756200	      0.31324405	     11.30624865	      1.27467512	     -5.27293438	    -11.91093400	     -2.63724864	    -14.91060413	    -20.86300258	     -3.40537059	    -17.70507525	     30.98563877	    108.73767254	      7.67180209	    -21.09270695	    -21.03008497	     61.86376376	     97.84357175
      0.05000000	      0.44239030	      1.00132435	      5.21502550	     -0.09680527	      1.00356791	     -0.20375822	     21.49131550	      0.00859313	    -10.43739726	      0.53180442	      0.00928174	     -9.51610514	      5.70854205	     -5.36833691	    -15.93592123	      1.70410041	     -1.47423082	     20.63623531	      0.36017025	      9.28256113	     -0.21411487	     -5.36833691	    -11.72890560	     -2.28512830	    -14.89900498	    -21.01839158	     -3.41288852	    -17.22945674	     30.64817292	    109.14769674	      6.99445028	    -20.71918157	    -21.34540362	     62.56774752	     98.23853649
      0.06000000	      0.65467734	      0.41429881	      5.39234392	     -0.08020340	      1.00560475	     -0.20262705	     20.47950223	      0.69058212	    -10.68084308	      0.60816178	      0.01061443	    -10.43575476	      5.48599558	     -5.40120505	    -15.14578452	      0.75911511	     -1.96156579	     23.69995364	      0.41364222	      7.16523057	     -1.25626777	     -5.40120505	    -11.70450990	     -1.78494371	    -14.53536764	    -21.24549331	     -3.33603713	    -17.04419735	     30.59258652	    109.20007047	      6.46848833	    -20.28997621	    -21.24913726	     63.07391648	     98.34167170
      0.07000000	      0.83931510	     -0.23648911	      5.49843492	     -0.06381920	      1.00781771	     -0.20132666	     19.50807911	      1.44918501	    -10.80894318	      0.72845540	      0.01271395	    -11.13650221	      5.13214481	     -5.43052425	    -14.07268010	     -0.27579074	     -2.53572971	     27.07171341	      0.47249053	      4.62460469	     -2.49031360	     -5.43052425	    -11.66192335	     -1.25831998	    -14.05211524	    -21.42788473	     -3.25497774	    -16.83622606	     30.64391669	    109.19891451	      5.89047645	    -19.79724333	    -21.16732891	     63.60216941	     98.38371354
      0.08000000	      0.99249040	     -0.93458198	      5.52326140	     -0.04778350	      1.01014445	     -0.19990902	     18.59665530	      2.27553712	    -10.80086926	      0.91223595	      0.01592152	    -11.55084095	      4.74478138	     -5.45883818	    -12.73955922	     -1.36935879	     -3.09463517	     30.67985551	      0.53546449	      1.67818032	     -3.88218453	     -5.45883818	    -11.64113212	     -0.71532005	    -13.43498101	    -21.52082887	     -3.19408456	    -16.59831855	     30.80969639	    109.20509856	      5.30667551	    -19.22922302	    -21.08425963	     64.13153364	     98.39765643
      0.09000000	      0.90771370	     -1.52600662	      5.46809482	     -0.03246973	      1.01230173	     -0.19853748	     18.00259481	      2.98686539	    -10.29524709	      1.19516697	      0.02085960	    -12.07961323	      3.78396388	     -5.52550004	    -10.96663980	     -2.20038961	     -3.30488271	     34.36413546	      0.59976731	     -2.28096773	     -6.74855575	     -5.52550004	    -11.45176427	     -0.31252194	    -12.84295416	    -21.52464541	     -3.22116101	    -16.18308296	     31.14147395	    109.50508881	      4.62200045	    -18.64046259	    -21.16187294	     64.65011803	     98.40845475
      0.10000000	      1.00552221	     -2.25773234	      5.38184236	     -0.01731441	      1.01461036	     -0.19701073	     17.23967911	      3.88395822	    -10.15641602	      1.55687065	      0.02717252	    -11.87153844	      3.42424242	     -5.59884983	     -9.21977334	     -3.32356706	     -3.79154484	     38.18415867	      0.66643929	     -6.09739471	     -8.89017701	     -5.59884983	    -11.46388156	      0.20569629	    -12.05973499	    -21.48704085	     -3.20329062	    -15.88629446	     31.41507918	    109.82936609	      4.04793131	    -18.04031906	    -21.06922406	     65.06455226	     98.39969969
      0.11000000	      1.22046458	     -3.07376027	      5.31608075	     -0.00261672	      1.01700073	     -0.19545641	     16.36970208	      4.89228879	    -10.10318345	      1.93521936	      0.03377595	    -11.30707303	      3.40240885	     -5.62547342	     -7.45792320	     -4.62586200	     -4.21349251	     42.06584022	      0.73418741	     -9.11204560	     -9.92767112	     -5.62547342	    -11.67433009	      0.82205408	    -11.16013719	    -21.32984733	     -3.15174914	    -15.67644526	     31.74494249	    109.85502121	      3.57991203	    -17.40309185	    -20.88332680	     65.46077047	     98.38000659
      0.12000000	      1.00795202	     -3.68528906	      5.24925533	      0.01130921	      1.01880784	     -0.19424628	     16.03564389	      5.62910390	     -9.97570903	      2.42691686	      0.04235769	    -10.79663365	      3.11807882	     -5.68577574	     -5.10372966	     -5.47083822	     -4.16554992	     45.86451458	      0.80048679	    -12.89280697	    -12.82021301	     -5.68577574	    -11.46768193	      1.18722623	    -10.37533279	    -21.19514121	     -3.21874692	    -15.37869907	     32.37463360	    110.09725029	      3.07436187	    -16.75428396	    -20.69975733	     65.71502687	     98.30534190
      0.13000000	      1.27608510	     -4.38115595	      5.26701228	      0.02519338	      1.02114240	     -0.19301950	     15.02507037	      6.54101293	     -9.97878530	      2.61768417	      0.04568721	     -9.97699239	      3.15156818	     -5.70584030	     -3.27027551	     -6.53242105	     -4.06365837	     49.46208512	      0.86327624	    -14.81375021	    -13.54251465	     -5.70584030	    -11.82915800	      1.66059425	     -9.50817921	    -20.81551702	     -3.23379508	    -15.17127837	     32.66639230	    110.09965617	      2.67056070	    -16.06497320	    -20.48868310	     66.02901800	     98.27969151
      0.14000000	      0.98206815	     -4.79409530	      5.28317176	      0.03833030	      1.02274614	     -0.19198036	     14.74019350	      7.06712230	    -10.13872921	      3.00169389	      0.05238944	     -9.32419842	      3.14360604	     -5.77825288	     -0.71245713	     -7.06688998	     -3.69336167	     52.93177884	      0.92383382	    -16.76508808	    -15.72083149	     -5.77825288	    -11.61825692	      1.77996609	     -8.92884408	    -20.40571955	     -3.32926347	    -14.69511241	     33.27891542	    110.39029780	      2.10239868	    -15.48841294	    -20.33570409	     66.11088732	     98.16012184
      0.15000000	      0.96302085	     -5.18141116	      5.39623364	      0.05141881	      1.02463774	     -0.19105592	     13.97850205	      7.61876199	    -10.35388764	      3.03237692	      0.05292496	     -8.66328562	      3.32892870	     -5.81999712	      1.53329978	     -7.59724458	     -3.22713924	     56.11949947	      0.97947004	    -16.88925217	    -16.39027571	     -5.81999712	    -11.71663452	      1.87877753	     -8.35821512	    -19.89262002	     -3.41061002	    -14.30091159	     33.75721920	    110.47560811	      1.57403954	    -14.89559758	    -20.15173621	     66.20559652	     98.08909741
